<?xml version="1.0" encoding="UTF-8"?>
<svg xmlns="http://www.w3.org/2000/svg" height="512px" viewBox="-40 0 480 480" width="512px"><g><path d="m344 480h-304c-22.082031-.027344-39.9726562-17.917969-40-40v-272c0-13.253906 10.746094-24 24-24h50.398438l48 32h237.601562c22.082031.027344 39.972656 17.917969 40 40v208c-.035156 30.914062-25.085938 55.964844-56 56zm-272-16h272c22.082031-.027344 39.972656-17.917969 40-40v-168h-280c-13.253906 0-24 10.746094-24 24v160c.015625 8.65625-2.792969 17.082031-8 24zm-48-304c-4.417969 0-8 3.582031-8 8v272c0 13.253906 10.746094 24 24 24s24-10.746094 24-24v-160c.027344-22.082031 17.917969-39.972656 40-40h280v-24c0-13.253906-10.746094-24-24-24h-242.398438l-48-32zm0 0" data-original="#000000" class="active-path" data-old_color="#000000" fill="#0FA74D"/><path d="m48 416h-16v-160c.027344-26.5 21.5-47.972656 48-48h256v16h-256c-17.671875 0-32 14.328125-32 32zm0 0" data-original="#000000" class="active-path" data-old_color="#000000" fill="#0FA74D"/><path d="m352 208h16v16h-16zm0 0" data-original="#000000" class="active-path" data-old_color="#000000" fill="#0FA74D"/><path d="m32 432h16v16h-16zm0 0" data-original="#000000" class="active-path" data-old_color="#000000" fill="#0FA74D"/><path d="m344 448h-32v-16h32c4.417969 0 8-3.582031 8-8v-32h16v32c0 13.253906-10.746094 24-24 24zm0 0" data-original="#000000" class="active-path" data-old_color="#000000" fill="#0FA74D"/><path d="m200 160c-1.957031 0-3.847656-.714844-5.3125-2.015625l-72-64c-2.484375-2.207031-3.347656-5.71875-2.167969-8.824219 1.179688-3.109375 4.15625-5.160156 7.480469-5.160156h32v-72c0-4.417969 3.582031-8 8-8h64c4.417969 0 8 3.582031 8 8v72h32c3.324219 0 6.300781 2.050781 7.480469 5.160156 1.179687 3.105469.316406 6.617188-2.167969 8.824219l-72 64c-1.464844 1.300781-3.355469 2.015625-5.3125 2.015625zm-50.960938-64 50.960938 45.296875 50.960938-45.296875h-18.960938c-4.417969 0-8-3.582031-8-8v-72h-48v72c0 4.417969-3.582031 8-8 8zm0 0" data-original="#000000" class="active-path" data-old_color="#000000" fill="#0FA74D"/><path d="m200 440c-44.183594 0-80-35.816406-80-80s35.816406-80 80-80 80 35.816406 80 80c-.046875 44.164062-35.835938 79.953125-80 80zm0-144c-35.347656 0-64 28.652344-64 64s28.652344 64 64 64 64-28.652344 64-64c-.039062-35.328125-28.671875-63.960938-64-64zm0 0" data-original="#000000" class="active-path" data-old_color="#000000" fill="#0FA74D"/><path d="m192 403.3125-39.59375-39.601562 11.3125-11.3125 28.28125 28.289062 50.910156-50.910156 11.3125 11.3125zm0 0" data-original="#000000" class="active-path" data-old_color="#000000" fill="#0FA74D"/></g> </svg>