<?xml version="1.0" encoding="UTF-8"?>
<svg xmlns="http://www.w3.org/2000/svg" height="512px" viewBox="0 0 480 480.0012" width="512px"><g><path d="m352 200h-58.765625l-12.648437-12.648438c.480468-1.085937.933593-2.199218 1.390624-3.351562h38.023438v-64h-38.023438c-.457031-1.152344-.910156-2.265625-1.390624-3.351562l26.886718-26.886719-45.230468-45.234375-26.890626 26.886718c-1.085937-.476562-2.199218-.933593-3.351562-1.390624v-38.023438h-64v38.023438c-1.152344.457031-2.261719.914062-3.351562 1.390624l-26.886719-26.886718-45.234375 45.234375 26.890625 26.886719c-.480469 1.085937-.9375 2.199218-1.394531 3.351562h-38.023438v64h38.023438c.457031 1.152344.914062 2.265625 1.394531 3.351562l-12.648438 12.648438h-58.769531c-13.253906 0-24 10.746094-24 24v16c.046875 11.796875 8.65625 21.8125 20.3125 23.625l123.6875 123.6875v84.6875c0 2.949219 1.625 5.664062 4.226562 7.054688 2.601563 1.390624 5.757813 1.238281 8.214844-.398438l48-32c2.222656-1.484375 3.558594-3.980469 3.558594-6.65625v-52.6875l123.6875-123.6875c11.65625-1.8125 20.269531-11.828125 20.3125-23.625v-16c0-13.253906-10.746094-24-24-24zm-215.863281-14.886719c-1.976563-3.691406-3.597657-7.5625-4.839844-11.5625l-1.785156-5.550781h-33.511719v-32h33.511719l1.785156-5.550781c1.242187-4 2.863281-7.871094 4.839844-11.5625l2.886719-5.253907-23.871094-23.871093 22.609375-22.609375 23.839843 23.871094 5.253907-2.886719c3.695312-1.964844 7.566406-3.570313 11.5625-4.800781l5.582031-1.824219v-33.511719h32v33.511719l5.550781 1.785156c4 1.230469 7.867188 2.835937 11.5625 4.800781l5.253907 2.886719 23.875-23.871094 22.605468 22.605469-23.871094 23.882812 2.886719 5.253907c1.976563 3.691406 3.597657 7.5625 4.839844 11.558593l1.785156 5.554688h33.511719v32h-33.511719l-1.785156 5.550781c-1.242187 4-2.863281 7.871094-4.839844 11.558594l-2.886719 5.257813 9.601563 9.601562h-141.183594l9.597657-9.601562zm82.207031 193.230469c-1.5 1.5-2.34375 3.535156-2.34375 5.65625v51.71875l-32 21.328125v-73.046875c0-2.121094-.84375-4.15625-2.34375-5.65625l-114.34375-114.34375h265.375zm141.65625-138.34375c0 4.417969-3.582031 8-8 8h-304c-4.417969 0-8-3.582031-8-8v-16c0-4.417969 3.582031-8 8-8h304c4.417969 0 8 3.582031 8 8zm0 0" data-original="#000000" class="active-path" data-old_color="#000000" fill="#0FA74D"/><path d="m200 192c22.09375 0 40-17.910156 40-40s-17.90625-40-40-40c-22.089844 0-40 17.910156-40 40 .027344 22.082031 17.921875 39.972656 40 40zm0-64c13.253906 0 24 10.746094 24 24s-10.746094 24-24 24-24-10.746094-24-24 10.746094-24 24-24zm0 0" data-original="#000000" class="active-path" data-old_color="#000000" fill="#0FA74D"/><path d="m480 56h-22.046875l15.597656-15.601562-33.949219-33.949219-15.601562 15.597656v-22.046875h-48v22.046875l-15.597656-15.597656-33.953125 33.949219 15.597656 15.601562h-22.046875v48h22.046875l-15.597656 15.601562 33.953125 33.949219 15.597656-15.597656v22.046875h48v-22.046875l15.601562 15.597656 33.949219-33.949219-15.597656-15.601562h22.046875zm-16 32h-24.75l-1.714844 5.703125c-.34375 1.109375-.792968 2.179687-1.34375 3.199219l-2.726562 5.210937 17.464844 17.460938-11.328126 11.355469-17.464843-17.464844-5.207031 2.726562c-1.023438.550782-2.09375 1-3.199219 1.34375l-5.730469 1.710938v24.753906h-16v-24.753906l-5.703125-1.710938c-1.109375-.34375-2.179687-.792968-3.199219-1.34375l-5.210937-2.726562-17.484375 17.464844-11.328125-11.328126 17.460937-17.464843-2.726562-5.207031c-.550782-1.023438-1-2.09375-1.34375-3.203126l-1.710938-5.726562h-24.753906v-16h24.753906l1.710938-5.703125c.34375-1.109375.792968-2.179687 1.34375-3.199219l2.726562-5.210937-17.460937-17.488281 11.328125-11.328126 17.460937 17.464844 5.210938-2.726562c1.019531-.550782 2.089843-1 3.199219-1.34375l5.726562-1.710938v-24.753906h16v24.753906l5.703125 1.710938c1.109375.34375 2.179687.792968 3.203125 1.34375l5.207031 2.726562 17.488281-17.464844 11.328126 11.328126-17.464844 17.464843 2.726562 5.207031c.550782 1.023438 1 2.09375 1.34375 3.203126l1.714844 5.703124h24.75zm0 0" data-original="#000000" class="active-path" data-old_color="#000000" fill="#0FA74D"/><path d="m400 56c-13.253906 0-24 10.746094-24 24s10.746094 24 24 24 24-10.746094 24-24-10.746094-24-24-24zm0 32c-4.417969 0-8-3.582031-8-8s3.582031-8 8-8 8 3.582031 8 8-3.582031 8-8 8zm0 0" data-original="#000000" class="active-path" data-old_color="#000000" fill="#0FA74D"/><path d="m40 78.863281v17.136719h16v-17.136719c2.863281-.742187 5.609375-1.886719 8.152344-3.398437l12.136718 12.136718 11.3125-11.3125-12.136718-12.136718c1.511718-2.542969 2.65625-5.289063 3.398437-8.152344h17.136719v-16h-17.136719c-.742187-2.863281-1.886719-5.609375-3.398437-8.152344l12.136718-12.136718-11.3125-11.3125-12.136718 12.136718c-2.542969-1.511718-5.289063-2.65625-8.152344-3.398437v-17.136719h-16v17.136719c-2.863281.742187-5.609375 1.886719-8.152344 3.398437l-12.136718-12.136718-11.308594 11.3125 12.132812 12.136718c-1.511718 2.542969-2.65625 5.289063-3.398437 8.152344h-17.136719v16h17.136719c.742187 2.863281 1.886719 5.609375 3.398437 8.152344l-12.132812 12.136718 11.308594 11.3125 12.136718-12.136718c2.542969 1.511718 5.289063 2.65625 8.152344 3.398437zm8-46.863281c8.835938 0 16 7.164062 16 16s-7.164062 16-16 16-16-7.164062-16-16 7.164062-16 16-16zm0 0" data-original="#000000" class="active-path" data-old_color="#000000" fill="#0FA74D"/></g> </svg>